<svg width="36" height="36" viewBox="0 0 36 36" fill="none" xmlns="http://www.w3.org/2000/svg">
<path fill-rule="evenodd" clip-rule="evenodd" d="M12.5125 27.1436C12.2996 27.1207 12.0866 27.0635 11.9004 26.9605C11.7141 26.8574 11.5544 26.7201 11.4302 26.5598L4.2445 17.1858C4.1203 17.0255 4.04046 16.8653 3.98723 16.6821C3.934 16.5105 3.92513 16.3273 3.94287 16.1327C3.96062 15.9382 4.02272 15.755 4.11143 15.5833C4.20901 15.4002 4.33321 15.2514 4.48402 15.1141C4.6437 14.9767 4.82112 14.8737 5.01629 14.8165C5.1671 14.7707 5.31791 14.7364 5.47759 14.7364H5.60179C5.80583 14.7592 6.001 14.8165 6.16955 14.9195C6.3381 15.0111 6.48004 15.137 6.59537 15.2972L12.9738 23.6183L30.5476 8.53274C30.7073 8.39539 30.8848 8.30382 31.071 8.23515C31.2219 8.18937 31.3815 8.15503 31.5324 8.15503H31.6565C31.8517 8.17792 32.038 8.23515 32.2154 8.32672C32.384 8.41828 32.5259 8.54419 32.6413 8.69298C32.863 8.97913 32.9606 9.35684 32.9163 9.7231C32.8719 10.1008 32.6767 10.4671 32.3751 10.7303L13.7278 26.743C13.5593 26.8918 13.3641 27.0062 13.1512 27.0749C12.9826 27.1321 12.8052 27.155 12.6367 27.155C12.5923 27.155 12.548 27.155 12.5036 27.155L12.5125 27.1436Z" fill="#FCFCFC"/>
</svg>
