<svg width="56" height="56" viewBox="0 0 56 56" fill="none" xmlns="http://www.w3.org/2000/svg">
<g id="Elementor Dynamic iFrame Page Background Logo_green">
<path id="Vector" d="M40.836 16.1414H19.2591C18.6779 16.1414 18.076 16.3687 17.5778 16.7821C17.0797 17.1954 16.7268 17.7431 16.6126 18.3218L12.5442 37.3365C12.4197 37.9152 12.5442 38.4629 12.8556 38.8763C13.1773 39.2896 13.6859 39.517 14.2671 39.517H35.8336C36.4148 39.517 37.0168 39.2896 37.5149 38.8763C38.0131 38.4629 38.366 37.9152 38.4801 37.3365L42.5381 18.3218C42.6004 18.0325 42.6004 17.7535 42.5485 17.4848C42.4966 17.2161 42.3824 16.9784 42.2268 16.7821C42.0711 16.5754 41.8635 16.4204 41.6248 16.3067C41.3965 16.193 41.1163 16.1414 40.836 16.1414ZM36.6431 37.3365C36.6431 37.3365 36.6224 37.4192 36.5912 37.4605C36.5705 37.5018 36.5393 37.5432 36.4978 37.5742C36.4563 37.6052 36.4148 37.6258 36.3733 37.6465C36.3318 37.6672 36.2799 37.6672 36.2384 37.6672H14.6615C14.5681 37.6672 14.4954 37.6258 14.4435 37.5638C14.3916 37.5018 14.3812 37.4192 14.3916 37.3262L17.6401 22.1041H39.8812L36.6328 37.3262L36.6431 37.3365ZM40.286 20.275H18.0345L18.4496 18.3218C18.4496 18.3218 18.4808 18.2392 18.5015 18.1978C18.5223 18.1565 18.5638 18.1255 18.5949 18.0945C18.626 18.0635 18.6779 18.0428 18.7195 18.0222C18.761 18.0015 18.8129 18.0015 18.8544 18.0015H40.4209C40.5143 18.0015 40.587 18.0428 40.6389 18.1048C40.6908 18.1668 40.7011 18.2495 40.6908 18.3425L40.2756 20.2956L40.286 20.275Z" fill="#ABCE4A"/>
<path id="Vector_2" d="M24.5835 26.4446C24.2306 26.4446 23.9712 26.3412 23.7843 26.1345C23.6079 25.9279 23.5456 25.6695 23.6079 25.3698C23.6702 25.0701 23.8362 24.8015 24.1061 24.6051C24.3759 24.4088 24.6769 24.3054 25.0298 24.3054C25.3826 24.3054 25.6525 24.4088 25.8289 24.6051C26.0157 24.8015 26.0676 25.0598 26.0053 25.3698C25.9431 25.6798 25.7666 25.9382 25.5072 26.1449C25.2477 26.3412 24.9364 26.4446 24.5835 26.4446ZM23.9504 34.2261H21.8643L23.2966 27.509H25.3826L23.9504 34.2261ZM33.0108 26.5479H29.6793L29.1915 28.8524H32.2532L31.89 30.5679H28.8283L28.0499 34.2261H25.9223L27.9254 24.8221H33.3845L33.0212 26.5479H33.0108Z" fill="#ABCE4A"/>
</g>
</svg>
