<svg width="57" height="58" viewBox="0 0 57 58" fill="none" xmlns="http://www.w3.org/2000/svg">
<g id="Figma Style Unifier Logo_white">
<path id="Vector" d="M35.7121 26.2462L30.0424 29.8085C29.5999 30.0873 29.1266 29.8085 29.2295 29.3438L30.7421 22.2192C30.845 21.7442 31.4315 21.4758 31.7608 21.7546L35.9179 25.3169C36.1855 25.544 36.0929 26.019 35.7224 26.2565L35.7121 26.2462Z" fill="#ABCE4A"/>
<path id="Vector_2" d="M43.2137 16.4885H24.6918C24.1464 16.4885 23.5805 16.7054 23.1071 17.0977C22.6441 17.4798 22.3148 18.0064 22.1913 18.5536L19.1249 33.0094C19.0117 33.5567 19.1249 34.0833 19.4233 34.4653C19.732 34.8474 20.2053 35.0745 20.7507 35.0745H39.2727C39.8181 35.0745 40.384 34.8577 40.8573 34.4653C41.3204 34.0833 41.6497 33.5567 41.7731 33.0094L44.8396 18.5536C44.9528 18.0064 44.8396 17.4798 44.5412 17.0977C44.2325 16.7157 43.7591 16.4885 43.2137 16.4885ZM39.7152 33.0094H21.1932L24.2596 18.5536H42.7816L39.7152 33.0094Z" fill="#ABCE4A"/>
<path id="Vector_3" d="M28.1078 39.2046H13.7018L15.8936 28.8791H17.9516L18.394 26.814H16.3361C15.7907 26.814 15.2247 27.0308 14.7514 27.4232C14.2883 27.8052 13.9591 28.3318 13.8356 28.8791L11.6438 39.2046C11.5306 39.7519 11.6438 40.2785 11.9422 40.6605C12.2509 41.0426 12.7243 41.2697 13.2696 41.2697H27.6756C28.221 41.2697 28.7869 41.0529 29.2603 40.6605C29.7233 40.2785 30.0526 39.7519 30.1761 39.2046L30.6185 37.1395H28.5605L28.1181 39.2046H28.1078Z" fill="#ABCE4A"/>
</g>
</svg>
