<svg width="36" height="36" viewBox="0 0 36 36" fill="none" xmlns="http://www.w3.org/2000/svg">
<path fill-rule="evenodd" clip-rule="evenodd" d="M7.94958 12.1145C8.59947 11.4646 9.48092 11.0995 10.4 11.0995H11.6361C12.1847 11.0995 12.6294 11.5442 12.6294 12.0928C12.6294 12.6414 12.1847 13.0861 11.6361 13.0861H10.4C10.0078 13.0861 9.63166 13.2419 9.35432 13.5192C9.07698 13.7966 8.92118 14.1727 8.92118 14.5649V25.6896C8.92118 26.0818 9.07698 26.4579 9.35432 26.7353C9.63166 27.0126 10.0078 27.1684 10.4 27.1684H21.5247C21.9169 27.1684 22.293 27.0126 22.5704 26.7353C22.8477 26.4579 23.0035 26.0818 23.0035 25.6896V24.4535C23.0035 23.9049 23.4482 23.4602 23.9968 23.4602C24.5454 23.4602 24.9901 23.9049 24.9901 24.4535V25.6896C24.9901 26.6087 24.625 27.4901 23.9751 28.14C23.3252 28.7899 22.4438 29.155 21.5247 29.155H10.4C9.48092 29.155 8.59947 28.7899 7.94958 28.14C7.29968 27.4901 6.93457 26.6087 6.93457 25.6896V14.5649C6.93457 13.6458 7.29968 12.7644 7.94958 12.1145Z" fill="#FCFCFC"/>
<path fill-rule="evenodd" clip-rule="evenodd" d="M23.8082 7.20582C24.4812 6.53301 25.394 6.15503 26.3457 6.15503C27.2976 6.15503 28.2105 6.53317 28.8836 7.20628C29.5567 7.87938 29.9348 8.7923 29.9348 9.74422C29.9348 10.6958 29.557 11.6083 28.8844 12.2814C28.8841 12.2816 28.8839 12.2819 28.8836 12.2822L27.3044 13.867C27.2668 13.9252 27.2226 13.9803 27.1716 14.0312C27.1216 14.0812 27.0675 14.1248 27.0105 14.162L18.5204 22.6824C18.334 22.8695 18.0808 22.9746 17.8168 22.9746H14.1085C13.56 22.9746 13.1152 22.5299 13.1152 21.9813V18.2731C13.1152 18.0091 13.2204 17.7559 13.4074 17.5695L21.9279 9.0794C21.965 9.02236 22.0086 8.96829 22.0587 8.91824C22.1096 8.86731 22.1647 8.82307 22.2228 8.78551L23.8082 7.20582C23.8083 7.20567 23.808 7.20598 23.8082 7.20582ZM22.7752 11.0395L15.1018 18.6856V20.988H17.4043L25.0503 13.3146L22.7752 11.0395ZM26.4526 11.9074L24.1825 9.63732L25.2125 8.61102C25.513 8.31048 25.9206 8.14164 26.3457 8.14164C26.7707 8.14164 27.1783 8.31048 27.4788 8.61102C27.7794 8.91156 27.9482 9.31918 27.9482 9.74422C27.9482 10.1692 27.7794 10.5769 27.4788 10.8774L26.4526 11.9074Z" fill="#FCFCFC"/>
</svg>
