<svg width="13" height="21" viewBox="0 0 13 21" fill="none" xmlns="http://www.w3.org/2000/svg">
<g id="Help">
<path id="Vector" d="M4.7272 17.3223C5.18018 17.3223 5.56606 17.519 5.80093 17.841C6.05259 18.1809 6.13648 18.6282 6.03581 19.1112C5.93515 19.5942 5.66672 20.0414 5.29762 20.3813C4.91175 20.7212 4.45876 20.9001 4.00578 20.9001C3.5528 20.9001 3.16693 20.7033 2.93205 20.3813C2.68039 20.0414 2.5965 19.5942 2.69717 19.1112C2.79783 18.6282 3.06626 18.1809 3.43536 17.841C3.82123 17.5012 4.27422 17.3223 4.7272 17.3223Z" fill="#ABCD49"/>
<path id="Vector_2" d="M4.71012 14.9967C4.45846 14.9967 4.22358 14.9073 4.07258 14.7463C3.90481 14.5674 3.83771 14.2991 3.85448 14.0128L3.88804 13.8339L3.97192 13.4225C4.4249 11.1864 6.65626 10.2025 7.09247 10.0236C7.66289 9.8089 8.18298 9.43323 8.63596 8.95023C9.07217 8.46722 9.39093 7.89477 9.57548 7.28654C9.76003 6.66043 9.79358 6.03431 9.65937 5.46186C9.52515 4.87152 9.20639 4.35274 8.77018 3.99496C8.33397 3.63717 7.79711 3.42251 7.19313 3.38673H7.02536C6.50527 3.38673 5.9684 3.51195 5.46509 3.78029C4.91144 4.06651 4.40813 4.47796 4.02225 4.99674C3.6196 5.51553 3.35117 6.10587 3.23373 6.73198C3.16662 7.08977 2.94852 7.42966 2.66331 7.69799C2.3781 7.94844 2.02578 8.09155 1.69023 8.09155C1.40502 8.09155 1.15336 7.98422 1.00237 7.76955C0.851377 7.55488 0.801045 7.26866 0.868154 6.94665C1.18692 5.35453 2.10966 3.79818 3.38472 2.67116C4.67656 1.54415 6.25361 0.900146 7.74678 0.900146C9.02184 0.900146 10.1627 1.36526 10.968 2.22394C11.7733 3.08261 12.1927 4.28118 12.1592 5.60497C12.1256 6.96454 11.6391 8.39567 10.7667 9.63001C9.89425 10.8644 8.66952 11.8304 7.34412 12.367C7.07569 12.4565 6.84081 12.6175 6.60593 12.8143C6.38783 13.0289 6.32072 13.2794 6.28717 13.4404L6.25361 13.6908C6.1865 13.9949 6.00195 14.3348 5.71674 14.5853C5.44831 14.8357 5.09599 14.9967 4.77722 15.0146H4.71012V14.9967Z" fill="#ABCD49"/>
</g>
</svg>
