<svg width="57" height="58" viewBox="0 0 57 58" fill="none" xmlns="http://www.w3.org/2000/svg">
<g id="Elementor Template Injector Logo_green">
<path id="Vector" d="M35.6675 33.7738L35.2757 33.6384H31.4068L31.4638 33.3748L35.6462 29.9263L37.292 22.1672H38.1542L38.5175 20.4429H34.214L34.7627 17.8566H40.2204C41.168 17.8566 42.1014 17.0871 42.308 16.1323H26.2198C26.0203 17.0871 26.6259 17.8566 27.5807 17.8566H33.0384L32.4898 20.4429H28.1863L27.8229 22.1672H28.685L27.0392 29.9263L29.7538 33.3748L29.6968 33.6384H25.6213L25.208 33.7524L13.6513 40.3502C13.7154 41.1339 14.321 41.6683 15.1404 41.6683H41.282C42.0943 41.6683 42.9279 41.1411 43.3483 40.3716L35.6675 33.7738ZM28.8917 29.2138L28.9202 29.0642H31.5065L31.8699 27.3399H29.2835L29.6469 25.6157H32.2333L32.6038 23.8914H30.0174L30.3808 22.1672H35.5535L34.0573 29.2067L30.9223 31.7931L28.8845 29.2067L28.8917 29.2138ZM16.487 40.2362L25.5144 35.0706H29.3762L28.9415 37.1083H30.6658L31.1004 35.0706H34.7413L40.7477 40.2362H16.487Z" fill="#ABCE4A"/>
</g>
</svg>
