<svg width="56" height="57" viewBox="0 0 56 57" fill="none" xmlns="http://www.w3.org/2000/svg">
<g id="Elementor Trading View Chart Widget Logo_green">
<path id="Vector" d="M40.4669 39.041C40.3198 38.8423 40.0745 38.7264 39.8047 38.7264L16.9719 38.2461L25.7192 30.4046L28.5314 33.104C28.8339 33.5015 29.5124 33.518 29.9784 33.1371L38.6439 25.1797L38.1125 27.6887C38.0553 27.9619 38.1125 28.2269 38.2597 28.4256C38.5621 28.8231 39.2407 28.8314 39.7066 28.4587C39.9437 28.2683 40.099 28.0116 40.1644 27.7383L41.219 22.7453C41.2762 22.472 41.219 22.2071 41.0719 22.0083C40.9247 21.8096 40.6795 21.6937 40.4097 21.6937L35.4393 21.586C35.1613 21.586 34.8834 21.6854 34.6463 21.8758C34.4092 22.0663 34.2539 22.323 34.1885 22.5962C34.1231 22.8695 34.1885 23.1345 34.3357 23.3332C34.491 23.5319 34.7199 23.6478 34.9978 23.6478L37.4912 23.6975L29.7413 29.5352L27.0844 26.7364C26.7819 26.339 26.1034 26.3224 25.6374 26.7033L18.1164 32.8059L21.5826 17.2554C21.6399 16.9821 21.5826 16.7172 21.4355 16.5184C21.133 16.121 20.4545 16.1127 19.9885 16.4853C19.7514 16.6758 19.5961 16.9325 19.5307 17.2057L14.7074 39.2315C14.6502 39.5048 14.7074 39.7697 14.8546 39.9685C15.0099 40.1672 15.2388 40.2831 15.5168 40.2831L39.3715 40.7882C39.6412 40.7882 39.9274 40.6888 40.1644 40.4984C40.4015 40.3079 40.5568 40.0513 40.6222 39.778C40.6876 39.5048 40.6222 39.2398 40.4751 39.041H40.4669Z" fill="#ABCE4A"/>
</g>
</svg>
